<?xml version="1.0" standalone="no"?>
<!DOCTYPE svg PUBLIC "-//W3C//DTD SVG 1.1//EN" "http://www.w3.org/Graphics/SVG/1.1/DTD/svg11.dtd">
<svg xmlns="http://www.w3.org/2000/svg" id="Capa_2" data-name="Capa 2" viewBox="0 0 76.6 25.98" width="76.5999984741211" height="25.979999542236328">
  <defs>
    <style>
      .cls-1 {
        stroke-width: 0px;
      }

      .cls-1, .cls-2 {
        fill: #fffce8;
      }

      .cls-2 {
        stroke: #fffce8;
        stroke-miterlimit: 10;
        stroke-width: .75px;
      }
    </style>
  </defs>
  <g id="Capa_8" data-name="Capa 8">
    <g>
      <g>
        <path class="cls-1" d="M18.43,24.62c-6.19,0-5.97-9.06-8.92-10.39-.87.69-1.44,1.27-1.99,2-.52,3.47-1.23,5.84-3.27,5.84-.73,0-1.81-.64-1.81-1.17,0-.3.11-.51.3-.62,2.29-1.43,3.91-15.57,1.85-15.57-2.17,0-3.04,2.65-1.8,3.89,0,1.03-2.35.07-2.68-1.29C-.55,4.92,1.87,2.64,5.25,2.64c2.75,0,3.91,2.12,3.68,4.65-.2,1.77-.64,3.7-.98,6.04.76-1.38,5.76-3.12,5.76-6.94,0-.64-.25-1.2-.87-1.56-.34-.87.71-2.27,2.06-2.27,1.48,0,2.81,1.66,2.81,3.13,0,3.04-3.63,5.17-5.92,6.89,3.2,1.7,4.68,9.06,8.55,9.06.44,0,.78-.12,1-.27.12-.07.23-.16.32-.27.62.48-.76,3.5-3.22,3.5Z"/>
        <path class="cls-1" d="M27.09,19.64c-1.55,0-2.03-.96-2.2-2.12l-.05-.03c-1,1.34-2.31,2.27-3.89,2.27-2.49,0-3.91-1.58-3.91-3.7,0-2.5,1.87-5.61,4.76-5.61,1.62,0,2.52,1.15,2.52,1.84,0,.3-.16.44-.46.44-.21,0-.44-.16-1.23-.16-1.44,0-2.49,1.33-2.49,2.8,0,1.04.78,1.56,1.55,1.56,1.48,0,2.29-1.7,2.68-2.99.05-1.13.16-2.05.36-2.67.43-1.58,3.84-.62,3.84.71,0,.94-.82,1.34-.91,3.5,0,.57.05,1.4.78,1.45,1.35,0,1.85-1.58,1.85-1.93,0-.48.2-.83.6-.83.48,0,.62.34.62.71,0,1.7-2.35,4.78-4.43,4.78Z"/>
        <path class="cls-1" d="M39.95,19.64c-1.55,0-2.03-.96-2.2-2.12l-.05-.03c-1,1.34-2.31,2.27-3.89,2.27-2.49,0-3.91-1.58-3.91-3.7,0-2.5,1.87-5.61,4.76-5.61,1.62,0,2.52,1.15,2.52,1.84,0,.3-.16.44-.46.44-.21,0-.44-.16-1.23-.16-1.44,0-2.49,1.33-2.49,2.8,0,1.04.78,1.56,1.55,1.56,1.48,0,2.29-1.7,2.68-2.99.05-1.13.16-2.05.36-2.67.43-1.58,3.84-.62,3.84.71,0,.94-.82,1.34-.91,3.5,0,.57.05,1.4.78,1.45,1.35,0,1.85-1.58,1.85-1.93,0-.48.19-.83.6-.83.48,0,.62.34.62.71,0,1.7-2.35,4.78-4.43,4.78Z"/>
        <path class="cls-1" d="M53.07,14.95c-.23,2.59-2.65,4.69-5.56,4.69-.91,0-1.37-1.06-1.28-1.68.09-.72.73-.55,1.37-.32.2.09.39.23.66.23.73,0,1.26-1.31,1.12-2.92-.09-1.63-.83-2.94-1.56-2.94-.43,0-.62.41-.92.69-.57,1.61-1.05,6.3-1.12,8.19-.09,1.84.05,4.51.59,4.51.32,0-.02.57-1.28.57-1.48,0-1.87-1.45-2.06-2.67-.28-2.49-.07-8.99.64-12.12.34-1.49,1.51-.9,2.74-.48.69-.3,1.4-.46,2.15-.46,2.75,0,4.76,2.11,4.53,4.71Z"/>
        <path class="cls-1" d="M64.67,14.86c0,1.34-1.92,4.78-6.04,4.78-2.93,0-5.19-1.89-5.19-4.42s2.11-5.1,4.82-5.1c2.42,0,3.86,1.68,3.57,3.17-.32,1.77-2.22,2.53-4,2.72.64.69,1.69,1.1,2.56,1.1,2.15,0,3.04-1.77,3.04-2.12,0-.48.2-.83.6-.83.48,0,.64.34.64.71ZM57.33,15.27c1-.28,1.96-2.04,1.96-3.1,0-.41-.14-.69-.48-.74-.94-.14-1.78,1.12-1.78,2.5,0,.48.09.92.3,1.35Z"/>
        <path class="cls-1" d="M76.6,14.86c0,1.88-2.58,4.78-4.39,4.78-2.49,0-2.79-2.28-2.79-4.39,0-.65.04-1.31.04-1.86-.52,2.48-1.53,6.25-3.47,6.25s-2.38-.94-2.52-2.67c-.36-3.4.59-12.14.94-13.33.36-1.5,3.5-.71,3.5.72,0,.21-.07.43-.19.64-.21.41-1.26,8.99-1.46,10.42-.05.83.73.39,1.1-.55.92-2.11,1.85-3.49,2.33-4.03,1-1.13,3.75-.35,3.75.92,0,1.04-.68,1.7-.68,3.66-.05.85.27,1.49.76,1.49,1.35,0,1.85-1.58,1.85-1.93,0-.48.2-.83.6-.83.48,0,.62.34.62.71Z"/>
      </g>
      <g>
        <path class="cls-2" d="M23.57,7.34c-.5,0-.76,0-1.11.03.06-.36.08-.62.08-1.17V1.47c0-.4-.03-.71-.07-1.07.37.02.5.02,1.1.02h2.05c1.35,0,2.11.61,2.11,1.7,0,.53-.16.92-.49,1.23-.19.18-.35.26-.69.37.44.1.64.18.88.4.36.33.54.77.54,1.33,0,1.22-.81,1.91-2.25,1.91h-2.14ZM25.5,3.25c.66,0,1.05-.36,1.05-.95,0-.28-.09-.51-.23-.64-.19-.17-.49-.27-.84-.27h-1.8v1.86h1.81ZM23.69,6.36h1.87c.77,0,1.21-.38,1.21-1.09,0-.35-.09-.58-.28-.76-.22-.19-.55-.3-.95-.3h-1.85v2.14Z"/>
        <path class="cls-2" d="M33.71,2.35c-.06.37-.07.64-.07,1.13v2.73c0,.48.02.77.07,1.13h-1.18v-.46c0-.13,0-.16,0-.37-.48.68-.96.93-1.78.93-.44,0-.76-.08-1.04-.25-.48-.3-.7-.79-.7-1.51v-2.2c0-.48-.03-.81-.07-1.13h1.26s-.01.42-.02.9c-.02.9-.04,2.16-.04,2.16,0,.51.13.83.4.99.13.07.31.12.48.12.63,0,1.12-.43,1.51-1.29v-1.76c0-.43-.03-.76-.07-1.13h1.25Z"/>
        <path class="cls-2" d="M34.81,7.34c.04-.38.06-.66.06-1.17V1.58c0-.44-.02-.75-.06-1.17h1.23c-.04.37-.06.65-.06,1.17v.87c0,.14,0,.36-.02.65.45-.61.99-.88,1.79-.88,1.46,0,2.32.95,2.32,2.57,0,.85-.24,1.55-.71,2.04-.41.42-.97.63-1.67.63-.8,0-1.3-.25-1.73-.86,0,.11,0,.21,0,.31v.43h-1.16ZM37.62,3.15c-.49,0-.9.17-1.18.48-.26.29-.43.76-.43,1.21,0,.55.23,1.1.57,1.37.25.2.59.32.91.32.88,0,1.44-.68,1.44-1.73s-.52-1.65-1.32-1.65Z"/>
        <path class="cls-2" d="M40.95,7.34c.04-.38.06-.66.06-1.17V1.58c0-.44-.02-.75-.06-1.17h1.23c-.04.37-.06.65-.06,1.17v.87c0,.14,0,.36-.02.65.45-.61.99-.88,1.79-.88,1.46,0,2.32.95,2.32,2.57,0,.85-.24,1.55-.71,2.04-.41.42-.97.63-1.67.63-.8,0-1.3-.25-1.73-.86,0,.11,0,.21,0,.31v.43h-1.16ZM43.76,3.15c-.49,0-.9.17-1.18.48-.26.29-.43.76-.43,1.21,0,.55.23,1.1.57,1.37.25.2.59.32.91.32.88,0,1.44-.68,1.44-1.73s-.52-1.65-1.32-1.65Z"/>
        <path class="cls-2" d="M48.36.41c-.04.34-.06.62-.06,1.14v4.65c0,.46.02.75.06,1.13h-1.26c.04-.37.06-.63.06-1.13V1.54c0-.52-.02-.8-.06-1.13h1.26Z"/>
        <path class="cls-2" d="M50.35,5.13c.04.48.12.72.32.97.25.31.64.49,1.09.49s.79-.16,1.04-.44c.1-.12.17-.22.25-.45l1.03.33c-.2.42-.31.58-.53.8-.45.44-1.06.67-1.79.67-1.54,0-2.52-1.03-2.52-2.65s.97-2.66,2.45-2.66c1.02,0,1.82.5,2.17,1.38.17.42.23.73.25,1.32,0,.02,0,.04.02.24h-3.78ZM53.01,4.27c-.06-.38-.17-.62-.38-.84-.24-.23-.53-.35-.94-.35-.68,0-1.17.45-1.31,1.18h2.63Z"/>
      </g>
    </g>
  </g>
</svg>