<svg xmlns="http://www.w3.org/2000/svg" xmlns:xlink="http://www.w3.org/1999/xlink" width="500" zoomAndPan="magnify" viewBox="0 0 375 374.999991" height="500" preserveAspectRatio="xMidYMid meet" version="1.0"><defs><clipPath id="da9bd88c97"><path d="M 100.546875 92 L 274.546875 92 L 274.546875 364.839844 L 100.546875 364.839844 Z M 100.546875 92 " clip-rule="nonzero"/></clipPath><clipPath id="4898146218"><path d="M 223 10.089844 L 265 10.089844 L 265 101 L 223 101 Z M 223 10.089844 " clip-rule="nonzero"/></clipPath></defs><path fill="#fffce8" d="M 186.210938 276.183594 L 171.902344 271.949219 L 223.808594 96.636719 L 238.109375 100.867188 Z M 186.210938 276.183594 " fill-opacity="1" fill-rule="nonzero"/><path fill="#fffce8" d="M 166.902344 333.351562 C 166.902344 333.984375 166.839844 334.609375 166.71875 335.230469 C 166.59375 335.847656 166.410156 336.449219 166.171875 337.035156 C 165.929688 337.617188 165.632812 338.171875 165.28125 338.699219 C 164.929688 339.222656 164.53125 339.710938 164.085938 340.15625 C 163.636719 340.601562 163.152344 341 162.625 341.351562 C 162.101562 341.703125 161.546875 342 160.964844 342.242188 C 160.378906 342.484375 159.777344 342.664062 159.15625 342.789062 C 158.539062 342.914062 157.914062 342.972656 157.28125 342.972656 C 156.648438 342.972656 156.023438 342.914062 155.402344 342.789062 C 154.785156 342.664062 154.183594 342.484375 153.597656 342.242188 C 153.015625 342 152.460938 341.703125 151.9375 341.351562 C 151.410156 341 150.925781 340.601562 150.476562 340.15625 C 150.03125 339.710938 149.632812 339.222656 149.28125 338.699219 C 148.929688 338.171875 148.632812 337.617188 148.390625 337.035156 C 148.152344 336.449219 147.96875 335.847656 147.84375 335.230469 C 147.722656 334.609375 147.660156 333.984375 147.660156 333.351562 C 147.660156 332.722656 147.722656 332.09375 147.84375 331.476562 C 147.96875 330.855469 148.152344 330.253906 148.390625 329.671875 C 148.632812 329.085938 148.929688 328.53125 149.28125 328.007812 C 149.632812 327.480469 150.03125 326.996094 150.476562 326.550781 C 150.925781 326.101562 151.410156 325.703125 151.9375 325.351562 C 152.460938 325.003906 153.015625 324.707031 153.597656 324.464844 C 154.183594 324.222656 154.785156 324.039062 155.402344 323.917969 C 156.023438 323.792969 156.648438 323.730469 157.28125 323.730469 C 157.914062 323.730469 158.539062 323.792969 159.15625 323.917969 C 159.777344 324.039062 160.378906 324.222656 160.964844 324.464844 C 161.546875 324.707031 162.101562 325.003906 162.625 325.351562 C 163.152344 325.703125 163.636719 326.101562 164.085938 326.550781 C 164.53125 326.996094 164.929688 327.480469 165.28125 328.007812 C 165.632812 328.53125 165.929688 329.085938 166.171875 329.671875 C 166.410156 330.253906 166.59375 330.855469 166.71875 331.476562 C 166.839844 332.09375 166.902344 332.722656 166.902344 333.351562 Z M 166.902344 333.351562 " fill-opacity="1" fill-rule="nonzero"/><path fill="#fffce8" d="M 166.902344 297.335938 C 166.902344 297.96875 166.839844 298.59375 166.71875 299.210938 C 166.59375 299.832031 166.410156 300.433594 166.171875 301.019531 C 165.929688 301.601562 165.632812 302.15625 165.28125 302.679688 C 164.929688 303.207031 164.53125 303.691406 164.085938 304.140625 C 163.636719 304.585938 163.152344 304.984375 162.625 305.335938 C 162.101562 305.6875 161.546875 305.984375 160.964844 306.226562 C 160.378906 306.464844 159.777344 306.648438 159.15625 306.773438 C 158.539062 306.894531 157.914062 306.957031 157.28125 306.957031 C 156.648438 306.957031 156.023438 306.894531 155.402344 306.773438 C 154.785156 306.648438 154.183594 306.464844 153.597656 306.226562 C 153.015625 305.984375 152.460938 305.6875 151.9375 305.335938 C 151.410156 304.984375 150.925781 304.585938 150.476562 304.140625 C 150.03125 303.691406 149.632812 303.207031 149.28125 302.679688 C 148.929688 302.15625 148.632812 301.601562 148.390625 301.019531 C 148.152344 300.433594 147.96875 299.832031 147.84375 299.210938 C 147.722656 298.59375 147.660156 297.96875 147.660156 297.335938 C 147.660156 296.703125 147.722656 296.078125 147.84375 295.457031 C 147.96875 294.839844 148.152344 294.238281 148.390625 293.652344 C 148.632812 293.070312 148.929688 292.515625 149.28125 291.992188 C 149.632812 291.464844 150.03125 290.980469 150.476562 290.53125 C 150.925781 290.085938 151.410156 289.6875 151.9375 289.335938 C 152.460938 288.984375 153.015625 288.6875 153.597656 288.445312 C 154.183594 288.207031 154.785156 288.023438 155.402344 287.898438 C 156.023438 287.777344 156.648438 287.714844 157.28125 287.714844 C 157.914062 287.714844 158.539062 287.777344 159.15625 287.898438 C 159.777344 288.023438 160.378906 288.207031 160.964844 288.445312 C 161.546875 288.6875 162.101562 288.984375 162.625 289.335938 C 163.152344 289.6875 163.636719 290.085938 164.085938 290.53125 C 164.53125 290.980469 164.929688 291.464844 165.28125 291.992188 C 165.632812 292.515625 165.929688 293.070312 166.171875 293.652344 C 166.410156 294.238281 166.59375 294.839844 166.71875 295.457031 C 166.839844 296.078125 166.902344 296.703125 166.902344 297.335938 Z M 166.902344 297.335938 " fill-opacity="1" fill-rule="nonzero"/><path fill="#fffce8" d="M 218.800781 271.011719 C 218.800781 271.640625 218.738281 272.265625 218.617188 272.886719 C 218.492188 273.507812 218.308594 274.109375 218.070312 274.691406 C 217.828125 275.277344 217.53125 275.832031 217.179688 276.355469 C 216.828125 276.878906 216.429688 277.367188 215.984375 277.8125 C 215.535156 278.261719 215.050781 278.660156 214.523438 279.011719 C 214 279.359375 213.445312 279.65625 212.863281 279.898438 C 212.277344 280.140625 211.675781 280.324219 211.058594 280.445312 C 210.4375 280.570312 209.8125 280.632812 209.179688 280.632812 C 208.546875 280.632812 207.921875 280.570312 207.304688 280.445312 C 206.683594 280.324219 206.082031 280.140625 205.496094 279.898438 C 204.914062 279.65625 204.359375 279.359375 203.835938 279.011719 C 203.308594 278.660156 202.824219 278.261719 202.375 277.8125 C 201.929688 277.367188 201.53125 276.878906 201.179688 276.355469 C 200.828125 275.832031 200.53125 275.277344 200.289062 274.691406 C 200.050781 274.109375 199.867188 273.507812 199.742188 272.886719 C 199.621094 272.265625 199.558594 271.640625 199.558594 271.011719 C 199.558594 270.378906 199.621094 269.753906 199.742188 269.132812 C 199.867188 268.511719 200.050781 267.910156 200.289062 267.328125 C 200.53125 266.746094 200.828125 266.191406 201.179688 265.664062 C 201.53125 265.140625 201.929688 264.652344 202.375 264.207031 C 202.824219 263.761719 203.308594 263.359375 203.835938 263.011719 C 204.359375 262.660156 204.914062 262.363281 205.496094 262.121094 C 206.082031 261.878906 206.683594 261.695312 207.304688 261.574219 C 207.921875 261.449219 208.546875 261.390625 209.179688 261.390625 C 209.8125 261.390625 210.4375 261.449219 211.058594 261.574219 C 211.675781 261.695312 212.277344 261.878906 212.863281 262.121094 C 213.445312 262.363281 214 262.660156 214.523438 263.011719 C 215.050781 263.359375 215.535156 263.761719 215.984375 264.207031 C 216.429688 264.652344 216.828125 265.140625 217.179688 265.664062 C 217.53125 266.191406 217.828125 266.746094 218.070312 267.328125 C 218.308594 267.910156 218.492188 268.511719 218.617188 269.132812 C 218.738281 269.753906 218.800781 270.378906 218.800781 271.011719 Z M 218.800781 271.011719 " fill-opacity="1" fill-rule="nonzero"/><path fill="#fffce8" d="M 188.457031 315.007812 C 188.457031 315.640625 188.394531 316.265625 188.269531 316.886719 C 188.148438 317.503906 187.964844 318.105469 187.722656 318.691406 C 187.480469 319.273438 187.183594 319.828125 186.832031 320.355469 C 186.484375 320.878906 186.085938 321.367188 185.636719 321.8125 C 185.191406 322.257812 184.703125 322.65625 184.179688 323.007812 C 183.652344 323.359375 183.101562 323.65625 182.515625 323.898438 C 181.933594 324.140625 181.332031 324.320312 180.710938 324.445312 C 180.089844 324.570312 179.464844 324.628906 178.835938 324.628906 C 178.203125 324.628906 177.578125 324.570312 176.957031 324.445312 C 176.335938 324.320312 175.734375 324.140625 175.152344 323.898438 C 174.570312 323.65625 174.015625 323.359375 173.488281 323.007812 C 172.964844 322.65625 172.476562 322.257812 172.03125 321.8125 C 171.585938 321.367188 171.183594 320.878906 170.835938 320.355469 C 170.484375 319.828125 170.1875 319.273438 169.945312 318.691406 C 169.703125 318.105469 169.519531 317.503906 169.398438 316.886719 C 169.273438 316.265625 169.210938 315.640625 169.210938 315.007812 C 169.210938 314.378906 169.273438 313.75 169.398438 313.132812 C 169.519531 312.511719 169.703125 311.910156 169.945312 311.328125 C 170.1875 310.742188 170.484375 310.1875 170.835938 309.664062 C 171.183594 309.136719 171.585938 308.652344 172.03125 308.207031 C 172.476562 307.757812 172.964844 307.359375 173.488281 307.007812 C 174.015625 306.65625 174.570312 306.363281 175.152344 306.121094 C 175.734375 305.878906 176.335938 305.695312 176.957031 305.574219 C 177.578125 305.449219 178.203125 305.386719 178.835938 305.386719 C 179.464844 305.386719 180.089844 305.449219 180.710938 305.574219 C 181.332031 305.695312 181.933594 305.878906 182.515625 306.121094 C 183.101562 306.363281 183.652344 306.65625 184.179688 307.007812 C 184.703125 307.359375 185.191406 307.757812 185.636719 308.207031 C 186.085938 308.652344 186.484375 309.136719 186.832031 309.664062 C 187.183594 310.1875 187.480469 310.742188 187.722656 311.328125 C 187.964844 311.910156 188.148438 312.511719 188.269531 313.132812 C 188.394531 313.75 188.457031 314.378906 188.457031 315.007812 Z M 188.457031 315.007812 " fill-opacity="1" fill-rule="nonzero"/><path fill="#fffce8" d="M 198.222656 335.886719 C 198.222656 336.515625 198.160156 337.140625 198.039062 337.761719 C 197.914062 338.382812 197.730469 338.984375 197.488281 339.566406 C 197.25 340.152344 196.953125 340.703125 196.601562 341.230469 C 196.25 341.753906 195.851562 342.242188 195.40625 342.6875 C 194.957031 343.136719 194.472656 343.535156 193.945312 343.886719 C 193.421875 344.234375 192.867188 344.53125 192.28125 344.773438 C 191.699219 345.015625 191.097656 345.199219 190.476562 345.320312 C 189.859375 345.445312 189.234375 345.507812 188.601562 345.507812 C 187.96875 345.507812 187.34375 345.445312 186.722656 345.320312 C 186.105469 345.199219 185.503906 345.015625 184.917969 344.773438 C 184.335938 344.53125 183.78125 344.234375 183.257812 343.886719 C 182.730469 343.535156 182.246094 343.136719 181.796875 342.6875 C 181.351562 342.242188 180.953125 341.753906 180.601562 341.230469 C 180.25 340.703125 179.953125 340.152344 179.710938 339.566406 C 179.46875 338.984375 179.289062 338.382812 179.164062 337.761719 C 179.042969 337.140625 178.980469 336.515625 178.980469 335.886719 C 178.980469 335.253906 179.042969 334.628906 179.164062 334.007812 C 179.289062 333.386719 179.46875 332.785156 179.710938 332.203125 C 179.953125 331.621094 180.25 331.066406 180.601562 330.539062 C 180.953125 330.015625 181.351562 329.527344 181.796875 329.082031 C 182.246094 328.636719 182.730469 328.234375 183.257812 327.886719 C 183.78125 327.535156 184.335938 327.238281 184.917969 326.996094 C 185.503906 326.753906 186.105469 326.570312 186.722656 326.449219 C 187.34375 326.324219 187.96875 326.265625 188.601562 326.265625 C 189.234375 326.265625 189.859375 326.324219 190.476562 326.449219 C 191.097656 326.570312 191.699219 326.753906 192.28125 326.996094 C 192.867188 327.238281 193.421875 327.535156 193.945312 327.886719 C 194.472656 328.234375 194.957031 328.636719 195.40625 329.082031 C 195.851562 329.527344 196.25 330.015625 196.601562 330.539062 C 196.953125 331.066406 197.25 331.621094 197.488281 332.203125 C 197.730469 332.785156 197.914062 333.386719 198.039062 334.007812 C 198.160156 334.628906 198.222656 335.253906 198.222656 335.886719 Z M 198.222656 335.886719 " fill-opacity="1" fill-rule="nonzero"/><path fill="#fffce8" d="M 218.800781 324.625 C 218.800781 325.257812 218.738281 325.882812 218.617188 326.5 C 218.492188 327.121094 218.308594 327.722656 218.070312 328.304688 C 217.828125 328.890625 217.53125 329.445312 217.179688 329.96875 C 216.828125 330.496094 216.429688 330.980469 215.984375 331.425781 C 215.535156 331.875 215.050781 332.273438 214.523438 332.625 C 214 332.976562 213.445312 333.269531 212.863281 333.511719 C 212.277344 333.753906 211.675781 333.9375 211.058594 334.0625 C 210.4375 334.183594 209.8125 334.246094 209.179688 334.246094 C 208.546875 334.246094 207.921875 334.183594 207.304688 334.0625 C 206.683594 333.9375 206.082031 333.753906 205.496094 333.511719 C 204.914062 333.269531 204.359375 332.976562 203.835938 332.625 C 203.308594 332.273438 202.824219 331.875 202.375 331.425781 C 201.929688 330.980469 201.53125 330.496094 201.179688 329.96875 C 200.828125 329.445312 200.53125 328.890625 200.289062 328.304688 C 200.050781 327.722656 199.867188 327.121094 199.742188 326.5 C 199.621094 325.882812 199.558594 325.257812 199.558594 324.625 C 199.558594 323.992188 199.621094 323.367188 199.742188 322.746094 C 199.867188 322.128906 200.050781 321.527344 200.289062 320.941406 C 200.53125 320.359375 200.828125 319.804688 201.179688 319.277344 C 201.53125 318.753906 201.929688 318.269531 202.375 317.820312 C 202.824219 317.375 203.308594 316.976562 203.835938 316.625 C 204.359375 316.273438 204.914062 315.976562 205.496094 315.734375 C 206.082031 315.492188 206.683594 315.3125 207.304688 315.1875 C 207.921875 315.066406 208.546875 315.003906 209.179688 315.003906 C 209.8125 315.003906 210.4375 315.066406 211.058594 315.1875 C 211.675781 315.3125 212.277344 315.492188 212.863281 315.734375 C 213.445312 315.976562 214 316.273438 214.523438 316.625 C 215.050781 316.976562 215.535156 317.375 215.984375 317.820312 C 216.429688 318.269531 216.828125 318.753906 217.179688 319.277344 C 217.53125 319.804688 217.828125 320.359375 218.070312 320.941406 C 218.308594 321.527344 218.492188 322.128906 218.617188 322.746094 C 218.738281 323.367188 218.800781 323.992188 218.800781 324.625 Z M 218.800781 324.625 " fill-opacity="1" fill-rule="nonzero"/><path fill="#fffce8" d="M 200.609375 292.9375 C 200.609375 293.566406 200.546875 294.195312 200.425781 294.8125 C 200.300781 295.433594 200.117188 296.035156 199.875 296.617188 C 199.632812 297.203125 199.339844 297.757812 198.988281 298.28125 C 198.636719 298.808594 198.238281 299.292969 197.789062 299.738281 C 197.34375 300.1875 196.859375 300.585938 196.332031 300.9375 C 195.808594 301.289062 195.253906 301.582031 194.667969 301.824219 C 194.085938 302.066406 193.484375 302.25 192.863281 302.371094 C 192.246094 302.496094 191.621094 302.558594 190.988281 302.558594 C 190.355469 302.558594 189.730469 302.496094 189.109375 302.371094 C 188.492188 302.25 187.890625 302.066406 187.304688 301.824219 C 186.722656 301.582031 186.167969 301.289062 185.640625 300.9375 C 185.117188 300.585938 184.632812 300.1875 184.183594 299.738281 C 183.738281 299.292969 183.339844 298.808594 182.988281 298.28125 C 182.636719 297.757812 182.339844 297.203125 182.097656 296.617188 C 181.855469 296.035156 181.675781 295.433594 181.550781 294.8125 C 181.429688 294.195312 181.367188 293.566406 181.367188 292.9375 C 181.367188 292.304688 181.429688 291.679688 181.550781 291.058594 C 181.675781 290.441406 181.855469 289.839844 182.097656 289.253906 C 182.339844 288.671875 182.636719 288.117188 182.988281 287.589844 C 183.339844 287.066406 183.738281 286.578125 184.183594 286.132812 C 184.632812 285.6875 185.117188 285.289062 185.640625 284.9375 C 186.167969 284.585938 186.722656 284.289062 187.304688 284.046875 C 187.890625 283.804688 188.492188 283.625 189.109375 283.5 C 189.730469 283.375 190.355469 283.316406 190.988281 283.316406 C 191.621094 283.316406 192.246094 283.375 192.863281 283.5 C 193.484375 283.625 194.085938 283.804688 194.667969 284.046875 C 195.253906 284.289062 195.808594 284.585938 196.332031 284.9375 C 196.859375 285.289062 197.34375 285.6875 197.789062 286.132812 C 198.238281 286.578125 198.636719 287.066406 198.988281 287.589844 C 199.339844 288.117188 199.632812 288.671875 199.875 289.253906 C 200.117188 289.839844 200.300781 290.441406 200.425781 291.058594 C 200.546875 291.679688 200.609375 292.304688 200.609375 292.9375 Z M 200.609375 292.9375 " fill-opacity="1" fill-rule="nonzero"/><path fill="#fffce8" d="M 224.246094 302.550781 C 224.246094 303.183594 224.183594 303.808594 224.058594 304.429688 C 223.9375 305.046875 223.753906 305.648438 223.511719 306.234375 C 223.269531 306.816406 222.972656 307.371094 222.625 307.898438 C 222.273438 308.421875 221.875 308.910156 221.425781 309.355469 C 220.980469 309.800781 220.492188 310.199219 219.96875 310.550781 C 219.445312 310.902344 218.890625 311.199219 218.304688 311.441406 C 217.722656 311.683594 217.121094 311.863281 216.5 311.988281 C 215.882812 312.113281 215.253906 312.171875 214.625 312.171875 C 213.992188 312.171875 213.367188 312.113281 212.746094 311.988281 C 212.125 311.863281 211.523438 311.683594 210.941406 311.441406 C 210.359375 311.199219 209.804688 310.902344 209.277344 310.550781 C 208.753906 310.199219 208.265625 309.800781 207.820312 309.355469 C 207.375 308.910156 206.976562 308.421875 206.625 307.898438 C 206.273438 307.371094 205.976562 306.816406 205.734375 306.234375 C 205.492188 305.648438 205.308594 305.046875 205.1875 304.429688 C 205.0625 303.808594 205.003906 303.183594 205.003906 302.550781 C 205.003906 301.921875 205.0625 301.292969 205.1875 300.675781 C 205.308594 300.054688 205.492188 299.453125 205.734375 298.871094 C 205.976562 298.285156 206.273438 297.730469 206.625 297.207031 C 206.976562 296.679688 207.375 296.195312 207.820312 295.75 C 208.265625 295.300781 208.753906 294.902344 209.277344 294.550781 C 209.804688 294.203125 210.359375 293.90625 210.941406 293.664062 C 211.523438 293.421875 212.125 293.238281 212.746094 293.117188 C 213.367188 292.992188 213.992188 292.929688 214.625 292.929688 C 215.253906 292.929688 215.882812 292.992188 216.5 293.117188 C 217.121094 293.238281 217.722656 293.421875 218.304688 293.664062 C 218.890625 293.90625 219.445312 294.203125 219.96875 294.550781 C 220.492188 294.902344 220.980469 295.300781 221.425781 295.75 C 221.875 296.195312 222.273438 296.679688 222.625 297.207031 C 222.972656 297.730469 223.269531 298.285156 223.511719 298.871094 C 223.753906 299.453125 223.9375 300.054688 224.058594 300.675781 C 224.183594 301.292969 224.246094 301.921875 224.246094 302.550781 Z M 224.246094 302.550781 " fill-opacity="1" fill-rule="nonzero"/><path fill="#fffce8" d="M 238.042969 335.886719 C 238.042969 336.515625 237.980469 337.140625 237.859375 337.761719 C 237.734375 338.382812 237.554688 338.984375 237.3125 339.566406 C 237.070312 340.152344 236.773438 340.703125 236.421875 341.230469 C 236.070312 341.753906 235.671875 342.242188 235.226562 342.6875 C 234.777344 343.136719 234.292969 343.535156 233.769531 343.886719 C 233.242188 344.234375 232.6875 344.53125 232.105469 344.773438 C 231.519531 345.015625 230.917969 345.199219 230.300781 345.320312 C 229.679688 345.445312 229.054688 345.507812 228.421875 345.507812 C 227.789062 345.507812 227.164062 345.445312 226.546875 345.320312 C 225.925781 345.199219 225.324219 345.015625 224.742188 344.773438 C 224.15625 344.53125 223.601562 344.234375 223.078125 343.886719 C 222.550781 343.535156 222.066406 343.136719 221.621094 342.6875 C 221.171875 342.242188 220.773438 341.753906 220.421875 341.230469 C 220.070312 340.703125 219.773438 340.152344 219.535156 339.566406 C 219.292969 338.984375 219.109375 338.382812 218.984375 337.761719 C 218.863281 337.140625 218.800781 336.515625 218.800781 335.886719 C 218.800781 335.253906 218.863281 334.628906 218.984375 334.007812 C 219.109375 333.386719 219.292969 332.785156 219.535156 332.203125 C 219.773438 331.621094 220.070312 331.066406 220.421875 330.539062 C 220.773438 330.015625 221.171875 329.527344 221.621094 329.082031 C 222.066406 328.636719 222.550781 328.234375 223.078125 327.886719 C 223.601562 327.535156 224.15625 327.238281 224.742188 326.996094 C 225.324219 326.753906 225.925781 326.570312 226.546875 326.449219 C 227.164062 326.324219 227.789062 326.265625 228.421875 326.265625 C 229.054688 326.265625 229.679688 326.324219 230.300781 326.449219 C 230.917969 326.570312 231.519531 326.753906 232.105469 326.996094 C 232.6875 327.238281 233.242188 327.535156 233.769531 327.886719 C 234.292969 328.234375 234.777344 328.636719 235.226562 329.082031 C 235.671875 329.527344 236.070312 330.015625 236.421875 330.539062 C 236.773438 331.066406 237.070312 331.621094 237.3125 332.203125 C 237.554688 332.785156 237.734375 333.386719 237.859375 334.007812 C 237.980469 334.628906 238.042969 335.253906 238.042969 335.886719 Z M 238.042969 335.886719 " fill-opacity="1" fill-rule="nonzero"/><path fill="#fffce8" d="M 240.574219 285.480469 C 240.574219 286.113281 240.515625 286.738281 240.390625 287.355469 C 240.269531 287.976562 240.085938 288.578125 239.84375 289.160156 C 239.601562 289.746094 239.304688 290.300781 238.953125 290.824219 C 238.601562 291.351562 238.203125 291.835938 237.757812 292.285156 C 237.3125 292.730469 236.824219 293.128906 236.300781 293.480469 C 235.773438 293.832031 235.21875 294.128906 234.636719 294.367188 C 234.054688 294.609375 233.453125 294.792969 232.832031 294.917969 C 232.210938 295.039062 231.585938 295.101562 230.953125 295.101562 C 230.324219 295.101562 229.695312 295.039062 229.078125 294.917969 C 228.457031 294.792969 227.855469 294.609375 227.273438 294.367188 C 226.6875 294.128906 226.132812 293.832031 225.609375 293.480469 C 225.085938 293.128906 224.597656 292.730469 224.152344 292.285156 C 223.703125 291.835938 223.304688 291.351562 222.953125 290.824219 C 222.605469 290.300781 222.308594 289.746094 222.066406 289.160156 C 221.824219 288.578125 221.640625 287.976562 221.519531 287.355469 C 221.394531 286.738281 221.332031 286.113281 221.332031 285.480469 C 221.332031 284.847656 221.394531 284.222656 221.519531 283.601562 C 221.640625 282.984375 221.824219 282.382812 222.066406 281.796875 C 222.308594 281.214844 222.605469 280.660156 222.953125 280.132812 C 223.304688 279.609375 223.703125 279.125 224.152344 278.675781 C 224.597656 278.230469 225.085938 277.832031 225.609375 277.480469 C 226.132812 277.128906 226.6875 276.832031 227.273438 276.589844 C 227.855469 276.347656 228.457031 276.167969 229.078125 276.042969 C 229.695312 275.921875 230.324219 275.859375 230.953125 275.859375 C 231.585938 275.859375 232.210938 275.921875 232.832031 276.042969 C 233.453125 276.167969 234.054688 276.347656 234.636719 276.589844 C 235.21875 276.832031 235.773438 277.128906 236.300781 277.480469 C 236.824219 277.832031 237.3125 278.230469 237.757812 278.675781 C 238.203125 279.125 238.601562 279.609375 238.953125 280.132812 C 239.304688 280.660156 239.601562 281.214844 239.84375 281.796875 C 240.085938 282.382812 240.269531 282.984375 240.390625 283.601562 C 240.515625 284.222656 240.574219 284.847656 240.574219 285.480469 Z M 240.574219 285.480469 " fill-opacity="1" fill-rule="nonzero"/><g clip-path="url(#da9bd88c97)"><path fill="#fffce8" d="M 227.371094 364.820312 L 160.039062 364.820312 C 145.25 364.820312 132.683594 353.75 130.785156 339.078125 L 100.667969 108.074219 C 100.136719 104.164062 101.332031 100.171875 103.957031 97.164062 C 106.597656 94.144531 110.40625 92.417969 114.402344 92.417969 L 260.636719 92.570312 C 264.484375 92.570312 268.195312 94.1875 270.792969 97.003906 C 273.394531 99.824219 274.707031 103.636719 274.40625 107.476562 L 256.800781 337.578125 C 255.605469 352.859375 242.683594 364.820312 227.367188 364.820312 Z M 115.628906 107.476562 L 145.578125 337.164062 C 146.515625 344.433594 152.730469 349.90625 160.039062 349.90625 L 227.371094 349.90625 C 235.078125 349.90625 241.339844 344.113281 241.933594 336.429688 L 259.449219 107.484375 L 115.628906 107.484375 Z M 259.539062 106.3125 Z M 115.453125 106.101562 L 115.453125 106.113281 Z M 115.453125 106.101562 " fill-opacity="1" fill-rule="nonzero"/></g><g clip-path="url(#4898146218)"><path fill="#fffce8" d="M 223.8125 96.613281 L 249.761719 10.179688 L 264.050781 14.46875 L 238.105469 100.902344 Z M 223.8125 96.613281 " fill-opacity="1" fill-rule="nonzero"/></g></svg>