<svg xmlns="http://www.w3.org/2000/svg" xmlns:xlink="http://www.w3.org/1999/xlink" width="500" zoomAndPan="magnify" viewBox="0 0 375 374.999991" height="500" preserveAspectRatio="xMidYMid meet" version="1.0"><defs><clipPath id="d0b572ff50"><path d="M 86.039062 14.324219 L 289.289062 14.324219 L 289.289062 360.824219 L 86.039062 360.824219 Z M 86.039062 14.324219 " clip-rule="nonzero"/></clipPath><clipPath id="7d3aa399a6"><path d="M 0.0390625 0.324219 L 202.960938 0.324219 L 202.960938 346.824219 L 0.0390625 346.824219 Z M 0.0390625 0.324219 " clip-rule="nonzero"/></clipPath><clipPath id="a1ed915f71"><rect x="0" width="204" y="0" height="347"/></clipPath></defs><g clip-path="url(#d0b572ff50)"><g transform="matrix(1, 0, 0, 1, 86, 14)"><g clip-path="url(#a1ed915f71)"><g clip-path="url(#7d3aa399a6)"><path fill="#fffce8" d="M 102.066406 0.171875 C 99.285156 0.171875 96.523438 0.917969 94.046875 2.390625 C 80.84375 10.148438 66.078125 27.058594 50.21875 52.621094 L 48.191406 55.886719 L 49.371094 60.082031 C 50.007812 61.984375 51.113281 63.476562 52.859375 64.839844 C 40.949219 64.667969 36.089844 65.554688 33.457031 70.347656 C 22.578125 90.394531 15.117188 110.671875 14.320312 114.929688 L 13.625 118.628906 L 16.015625 121.636719 C 17.515625 123.5 18.527344 124.476562 23.058594 125.011719 C 5.152344 129.039062 1.714844 131.160156 1.09375 137.203125 C -7.847656 217.339844 31.507812 275.871094 57.546875 314.613281 C 59.015625 316.785156 61.34375 318.203125 64.117188 318.59375 C 68.667969 319.28125 78.625 315.917969 89.660156 311.242188 C 85.164062 316.941406 84.964844 319.140625 85.1875 321.710938 L 85.511719 325.550781 L 88.875 328.109375 C 91.210938 329.734375 93.558594 331.609375 95.867188 333.453125 C 100.828125 337.402344 105.964844 341.484375 111.339844 343.640625 C 116.941406 345.855469 122.390625 342.472656 133.003906 334.671875 C 132.921875 336.261719 133.203125 337.78125 133.949219 339.304688 L 135.765625 343.015625 L 140.332031 344.101562 C 147.6875 345.472656 155.257812 346.257812 162.765625 346.421875 L 179.554688 346.824219 C 188.542969 346.964844 195.765625 343.347656 199.9375 336.808594 C 204.097656 330.289062 204.28125 322.054688 200.453125 314.214844 C 200.210938 313.636719 199.789062 311.492188 199.546875 310.214844 C 199.003906 307.433594 198.445312 304.558594 197.277344 302.167969 C 195.910156 299.238281 194.746094 296.519531 193.546875 293.722656 C 192.703125 291.75 191.835938 289.742188 190.871094 287.570312 C 189.71875 285.027344 189.097656 282.40625 188.378906 279.367188 C 187.671875 276.375 186.867188 272.976562 185.429688 269.46875 C 184.160156 266.285156 182.335938 263.300781 180.578125 260.410156 C 179.058594 257.917969 177.617188 255.570312 176.84375 253.558594 C 171.871094 240.609375 169.957031 226.964844 168.113281 213.773438 C 166.644531 203.257812 165.121094 192.378906 162.058594 181.886719 C 158.714844 170.4375 153.570312 159.421875 148.585938 148.769531 C 143.300781 137.464844 138.3125 126.785156 136.105469 116.929688 C 135.339844 113.519531 135.210938 109.90625 135.082031 106.09375 C 134.949219 102.105469 134.816406 97.980469 133.921875 93.730469 C 132.90625 88.941406 131.292969 84.597656 129.738281 80.398438 C 128.347656 76.648438 127.03125 73.101562 126.453125 69.964844 C 125.449219 64.574219 125.324219 59.011719 125.207031 53.640625 C 125.101562 48.765625 125 44.167969 124.285156 39.734375 C 123.257812 32.929688 121.40625 27.085938 119.921875 22.382812 C 118.847656 18.976562 117.910156 16.035156 117.636719 13.847656 L 116.742188 6.703125 L 114.765625 6.703125 C 113.285156 4.632812 111.296875 2.929688 108.921875 1.773438 C 106.734375 0.707031 104.386719 0.171875 102.046875 0.171875 Z M 68.308594 54.550781 C 80.601562 35.753906 92.039062 22.796875 101.613281 16.867188 C 102.148438 20.214844 103.234375 23.664062 104.382812 27.296875 C 105.765625 31.664062 107.328125 36.628906 108.175781 42.242188 C 108.726562 45.648438 108.816406 49.703125 108.910156 53.996094 C 109.039062 59.746094 109.179688 66.261719 110.429688 72.929688 C 111.257812 77.4375 112.878906 81.828125 114.460938 86.070312 C 115.875 89.882812 117.210938 93.488281 117.96875 97.085938 C 118.566406 99.929688 118.671875 103.191406 118.792969 106.640625 C 118.933594 110.839844 119.089844 115.597656 120.195312 120.496094 C 122.785156 132.085938 128.144531 143.542969 133.820312 155.675781 C 138.539062 165.773438 143.421875 176.210938 146.410156 186.460938 C 149.136719 195.8125 150.511719 205.636719 151.96875 216.03125 C 153.9375 230.136719 155.972656 244.726562 161.632812 259.414062 C 162.925781 262.796875 164.820312 265.902344 166.660156 268.90625 C 168.136719 271.324219 169.527344 273.613281 170.3125 275.578125 C 171.296875 277.976562 171.890625 280.476562 172.515625 283.132812 C 173.3125 286.5 174.21875 290.320312 176.003906 294.261719 C 176.914062 296.308594 177.746094 298.25 178.5625 300.144531 C 179.832031 303.105469 181.066406 305.980469 182.566406 309.1875 C 182.875 309.902344 183.292969 312.046875 183.542969 313.328125 C 184.085938 316.105469 184.640625 318.972656 185.800781 321.355469 C 187.089844 323.988281 187.230469 326.417969 186.195312 328.03125 C 185.152344 329.664062 182.835938 330.6875 179.921875 330.515625 L 163.15625 330.113281 C 159.597656 330.027344 156.023438 329.785156 152.464844 329.398438 C 156.402344 321.894531 158.992188 316.933594 156.816406 311.933594 L 155.253906 308.355469 L 151.003906 306.90625 C 145.519531 305.355469 140.933594 308.496094 127.207031 318.667969 C 123.640625 321.308594 118.128906 325.390625 115.015625 327.273438 C 112.296875 325.660156 109.121094 323.140625 106.035156 320.671875 C 105.421875 320.1875 104.808594 319.695312 104.191406 319.210938 C 108.042969 314.746094 115.851562 306.542969 131.082031 291.6875 C 132.148438 290.640625 133.253906 289.566406 134.242188 288.453125 C 134.261719 288.433594 134.285156 288.414062 134.304688 288.402344 L 134.304688 288.386719 C 137.390625 284.875 139.300781 280.980469 135.304688 276.554688 L 130.054688 270.738281 L 123.835938 275.898438 C 118.472656 280.210938 81.085938 298.351562 68.617188 301.820312 C 44.484375 265.851562 10.726562 213.007812 16.863281 143.378906 C 23.371094 141.488281 37.761719 138.53125 47.863281 136.449219 C 86.257812 128.546875 90.515625 127.4375 91.6875 120.074219 L 92.273438 116.394531 L 89.84375 113.453125 C 86.757812 109.785156 85.722656 109.671875 53.007812 109.453125 C 46.773438 109.410156 39.222656 109.367188 33.410156 109.230469 C 36.097656 102.277344 40.433594 92.085938 46.109375 81.242188 C 50.035156 81.023438 57.390625 81.214844 62.601562 81.34375 C 82.566406 81.859375 89.269531 82.027344 92.613281 76.054688 L 94.429688 72.816406 L 93.21875 68.785156 C 91.425781 63.769531 86.4375 61.652344 74.3125 56.929688 C 72.601562 56.261719 70.363281 55.386719 68.304688 54.546875 Z M 17.292969 139.066406 C 17.292969 139.019531 17.296875 138.976562 17.304688 138.9375 C 17.304688 138.984375 17.296875 139.019531 17.292969 139.066406 Z M 98.246094 314.75 C 98.246094 314.75 98.195312 314.714844 98.167969 314.699219 C 98.195312 314.714844 98.21875 314.738281 98.246094 314.75 Z M 98.246094 314.75 " fill-opacity="1" fill-rule="nonzero"/></g></g></g></g></svg>